<?xml version="1.0"?>
<svg xmlns="http://www.w3.org/2000/svg" xmlns:xlink="http://www.w3.org/1999/xlink" viewBox="0 0 64 64" width="512" height="512"><defs><linearGradient id="New_Gradient_Swatch_5" x1="-2" y1="30" x2="62" y2="30" gradientUnits="userSpaceOnUse"><stop offset="0" stop-color="#4761ac"/><stop offset="1" stop-color="#54c2ef"/></linearGradient><linearGradient id="New_Gradient_Swatch_5-3" y1="32" y2="32" xlink:href="#New_Gradient_Swatch_5"/></defs><g id="Gradient_outline" data-name="Gradient outline"><path d="M20,50H44V10H20Zm2-38H42V48H22Z" style="fill:url(#New_Gradient_Swatch_5)"/><path d="M27,27a3,3,0,1,0,3,3A3,3,0,0,0,27,27Zm0,4a1,1,0,1,1,1-1A1,1,0,0,1,27,31Z" style="fill:url(#New_Gradient_Swatch_5)"/><path d="M14,52v4H12a3,3,0,0,0-3,3v3H55V59a3,3,0,0,0-3-3H50V52H48V8h1a3,3,0,0,0,3-3V2H12V5a3,3,0,0,0,3,3h1V52Zm38,6a1,1,0,0,1,1,1v1H11V59a1,1,0,0,1,1-1Zm-4-2H16V54H48ZM15,6a1,1,0,0,1-1-1V4H50V5a1,1,0,0,1-1,1Zm3,2H46V52H18Z" style="fill:url(#New_Gradient_Swatch_5-3)"/></g></svg>
